<svg xmlns="http://www.w3.org/2000/svg" viewBox="0 0 32 32"><circle cx="16" cy="16" r="16" fill="#F7931A"></circle><path d="M22.5 14c.2-1.6-1-2.5-2.7-3.1l.5-2.2-1.3-.3-.5 2.1-1-.2.5-2.2-1.3-.3-.5 2.2c-.3 0-.6-.1-.8-.2l-1.8-.5-.3 1.4s1 .2.9.2c.5.1.6.5.6.7l-.6 2.4c0 .1 0 .2.1.2l-.1.1-.8 3.3c-.1.1-.2.4-.6.3 0 0-.9-.2-.9-.2l-.6 1.5 1.7.4c.3.1.6.2.9.2l-.5 2.2 1.3.3.5-2.2 1 .3-.5 2.2 1.3.3.5-2.2c2.3.4 4 .3 4.8-1.8.6-1.7 0-2.7-1.2-3.3.8-.3 1.5-.8 1.7-2zm-3.2 4.4c-.4 1.7-3.3.8-4.2.6l.7-2.9c.9.3 3.9.7 3.5 2.3zm.4-4.5c-.4 1.6-2.8.8-3.6.6l.6-2.6c.8.2 3.4.6 3 2z" fill="#fff"></path></svg>