<svg xmlns="http://www.w3.org/2000/svg" viewBox="0 0 32 32"><circle cx="16" cy="16" r="16" fill="#2775CA"></circle><path d="M20.5 18.2c0-2.3-1.4-3.1-4.2-3.5-2-.3-2.4-.8-2.4-1.7 0-.9.6-1.5 1.9-1.5 1.2 0 1.8.4 2.1 1.3.1.2.2.3.4.3h1c.2 0 .4-.2.4-.4v-.1c-.2-1.4-1.4-2.5-2.8-2.6V8.5c0-.2-.2-.4-.4-.4h-.9c-.2 0-.4.2-.4.4V10c-2 .3-3.3 1.6-3.3 3.3 0 2.2 1.4 3 4.2 3.4 1.9.3 2.5.7 2.5 1.8 0 1-.9 1.7-2.1 1.7-1.7 0-2.2-.7-2.4-1.6-.1-.3-.2-.4-.4-.4h-1c-.2 0-.4.2-.4.4v.1c.2 1.6 1.3 2.8 3.4 3.1V24c0 .2.2.4.4.4h.9c.2 0 .4-.2.4-.4v-1.6c2-.3 3.3-1.7 3.3-3.5z" fill="#fff"></path><path d="M13.1 25.5c-4.8-1.7-7.3-7.1-5.6-11.9 1-2.7 3-4.7 5.6-5.6.3-.1.4-.3.4-.6v-.8c0-.2-.1-.4-.4-.4-.1 0-.2 0-.2.1-5.8 1.8-9 8-7.2 13.8 1.1 3.4 3.7 6 7.2 7.2.2.1.5-.1.5-.3.1-.1.1-.2.1-.3v-.8c0-.2-.1-.3-.4-.4zm5.8-19.6c-.2-.1-.5.1-.5.3-.1.1-.1.2-.1.3v.8c0 .2.2.4.4.5 4.8 1.7 7.3 7.1 5.6 11.9-1 2.7-3 4.7-5.6 5.6-.3.1-.4.3-.4.6v.8c0 .2.1.4.4.4.1 0 .2 0 .2-.1 5.8-1.8 9-8 7.2-13.8-1.1-3.5-3.7-6.1-7.2-7.3z" fill="#fff"></path></svg>